<?xml version="1.0" encoding="utf-8" standalone="no"?>
<!DOCTYPE svg PUBLIC "-//W3C//DTD SVG 1.1//EN"
  "http://www.w3.org/Graphics/SVG/1.1/DTD/svg11.dtd">
<svg xmlns:xlink="http://www.w3.org/1999/xlink" width="420.82625pt" height="325.986375pt" viewBox="0 0 420.82625 325.986375" xmlns="http://www.w3.org/2000/svg" version="1.1">
 <metadata>
  <rdf:RDF xmlns:dc="http://purl.org/dc/elements/1.1/" xmlns:cc="http://creativecommons.org/ns#" xmlns:rdf="http://www.w3.org/1999/02/22-rdf-syntax-ns#">
   <cc:Work>
    <dc:type rdf:resource="http://purl.org/dc/dcmitype/StillImage"/>
    <dc:date>2022-05-31T20:25:40.104244</dc:date>
    <dc:format>image/svg+xml</dc:format>
    <dc:creator>
     <cc:Agent>
      <dc:title>Matplotlib v3.5.1, https://matplotlib.org/</dc:title>
     </cc:Agent>
    </dc:creator>
   </cc:Work>
  </rdf:RDF>
 </metadata>
 <defs>
  <style type="text/css">*{stroke-linejoin: round; stroke-linecap: butt}</style>
 </defs>
 <g id="figure_1">
  <g id="patch_1">
   <path d="M 0 325.986375 
L 420.82625 325.986375 
L 420.82625 0 
L 0 0 
z
" style="fill: #ffffff"/>
  </g>
  <g id="axes_1">
   <g id="patch_2">
    <path d="M 56.50625 288.430125 
L 413.62625 288.430125 
L 413.62625 22.318125 
L 56.50625 22.318125 
z
" style="fill: #ffffff"/>
   </g>
   <g id="matplotlib.axis_1">
    <g id="xtick_1">
     <g id="line2d_1">
      <path d="M 72.088367 288.430125 
L 72.088367 22.318125 
" clip-path="url(#p4cfb379358)" style="fill: none; stroke: #b0b0b0; stroke-width: 0.8; stroke-linecap: square"/>
     </g>
     <g id="line2d_2">
      <defs>
       <path id="m0f2eeacee7" d="M 0 0 
L 0 3.5 
" style="stroke: #000000; stroke-width: 0.8"/>
      </defs>
      <g>
       <use xlink:href="#m0f2eeacee7" x="72.088367" y="288.430125" style="stroke: #000000; stroke-width: 0.8"/>
      </g>
     </g>
     <g id="text_1">
      <!-- 0 -->
      <g transform="translate(68.907117 303.028562)scale(0.1 -0.1)">
       <defs>
        <path id="DejaVuSans-30" d="M 2034 4250 
Q 1547 4250 1301 3770 
Q 1056 3291 1056 2328 
Q 1056 1369 1301 889 
Q 1547 409 2034 409 
Q 2525 409 2770 889 
Q 3016 1369 3016 2328 
Q 3016 3291 2770 3770 
Q 2525 4250 2034 4250 
z
M 2034 4750 
Q 2819 4750 3233 4129 
Q 3647 3509 3647 2328 
Q 3647 1150 3233 529 
Q 2819 -91 2034 -91 
Q 1250 -91 836 529 
Q 422 1150 422 2328 
Q 422 3509 836 4129 
Q 1250 4750 2034 4750 
z
" transform="scale(0.015625)"/>
       </defs>
       <use xlink:href="#DejaVuSans-30"/>
      </g>
     </g>
    </g>
    <g id="xtick_2">
     <g id="line2d_3">
      <path d="M 137.149398 288.430125 
L 137.149398 22.318125 
" clip-path="url(#p4cfb379358)" style="fill: none; stroke: #b0b0b0; stroke-width: 0.8; stroke-linecap: square"/>
     </g>
     <g id="line2d_4">
      <g>
       <use xlink:href="#m0f2eeacee7" x="137.149398" y="288.430125" style="stroke: #000000; stroke-width: 0.8"/>
      </g>
     </g>
     <g id="text_2">
      <!-- 100 -->
      <g transform="translate(127.605648 303.028562)scale(0.1 -0.1)">
       <defs>
        <path id="DejaVuSans-31" d="M 794 531 
L 1825 531 
L 1825 4091 
L 703 3866 
L 703 4441 
L 1819 4666 
L 2450 4666 
L 2450 531 
L 3481 531 
L 3481 0 
L 794 0 
L 794 531 
z
" transform="scale(0.015625)"/>
       </defs>
       <use xlink:href="#DejaVuSans-31"/>
       <use xlink:href="#DejaVuSans-30" x="63.623047"/>
       <use xlink:href="#DejaVuSans-30" x="127.246094"/>
      </g>
     </g>
    </g>
    <g id="xtick_3">
     <g id="line2d_5">
      <path d="M 202.210429 288.430125 
L 202.210429 22.318125 
" clip-path="url(#p4cfb379358)" style="fill: none; stroke: #b0b0b0; stroke-width: 0.8; stroke-linecap: square"/>
     </g>
     <g id="line2d_6">
      <g>
       <use xlink:href="#m0f2eeacee7" x="202.210429" y="288.430125" style="stroke: #000000; stroke-width: 0.8"/>
      </g>
     </g>
     <g id="text_3">
      <!-- 200 -->
      <g transform="translate(192.666679 303.028562)scale(0.1 -0.1)">
       <defs>
        <path id="DejaVuSans-32" d="M 1228 531 
L 3431 531 
L 3431 0 
L 469 0 
L 469 531 
Q 828 903 1448 1529 
Q 2069 2156 2228 2338 
Q 2531 2678 2651 2914 
Q 2772 3150 2772 3378 
Q 2772 3750 2511 3984 
Q 2250 4219 1831 4219 
Q 1534 4219 1204 4116 
Q 875 4013 500 3803 
L 500 4441 
Q 881 4594 1212 4672 
Q 1544 4750 1819 4750 
Q 2544 4750 2975 4387 
Q 3406 4025 3406 3419 
Q 3406 3131 3298 2873 
Q 3191 2616 2906 2266 
Q 2828 2175 2409 1742 
Q 1991 1309 1228 531 
z
" transform="scale(0.015625)"/>
       </defs>
       <use xlink:href="#DejaVuSans-32"/>
       <use xlink:href="#DejaVuSans-30" x="63.623047"/>
       <use xlink:href="#DejaVuSans-30" x="127.246094"/>
      </g>
     </g>
    </g>
    <g id="xtick_4">
     <g id="line2d_7">
      <path d="M 267.27146 288.430125 
L 267.27146 22.318125 
" clip-path="url(#p4cfb379358)" style="fill: none; stroke: #b0b0b0; stroke-width: 0.8; stroke-linecap: square"/>
     </g>
     <g id="line2d_8">
      <g>
       <use xlink:href="#m0f2eeacee7" x="267.27146" y="288.430125" style="stroke: #000000; stroke-width: 0.8"/>
      </g>
     </g>
     <g id="text_4">
      <!-- 300 -->
      <g transform="translate(257.72771 303.028562)scale(0.1 -0.1)">
       <defs>
        <path id="DejaVuSans-33" d="M 2597 2516 
Q 3050 2419 3304 2112 
Q 3559 1806 3559 1356 
Q 3559 666 3084 287 
Q 2609 -91 1734 -91 
Q 1441 -91 1130 -33 
Q 819 25 488 141 
L 488 750 
Q 750 597 1062 519 
Q 1375 441 1716 441 
Q 2309 441 2620 675 
Q 2931 909 2931 1356 
Q 2931 1769 2642 2001 
Q 2353 2234 1838 2234 
L 1294 2234 
L 1294 2753 
L 1863 2753 
Q 2328 2753 2575 2939 
Q 2822 3125 2822 3475 
Q 2822 3834 2567 4026 
Q 2313 4219 1838 4219 
Q 1578 4219 1281 4162 
Q 984 4106 628 3988 
L 628 4550 
Q 988 4650 1302 4700 
Q 1616 4750 1894 4750 
Q 2613 4750 3031 4423 
Q 3450 4097 3450 3541 
Q 3450 3153 3228 2886 
Q 3006 2619 2597 2516 
z
" transform="scale(0.015625)"/>
       </defs>
       <use xlink:href="#DejaVuSans-33"/>
       <use xlink:href="#DejaVuSans-30" x="63.623047"/>
       <use xlink:href="#DejaVuSans-30" x="127.246094"/>
      </g>
     </g>
    </g>
    <g id="xtick_5">
     <g id="line2d_9">
      <path d="M 332.332492 288.430125 
L 332.332492 22.318125 
" clip-path="url(#p4cfb379358)" style="fill: none; stroke: #b0b0b0; stroke-width: 0.8; stroke-linecap: square"/>
     </g>
     <g id="line2d_10">
      <g>
       <use xlink:href="#m0f2eeacee7" x="332.332492" y="288.430125" style="stroke: #000000; stroke-width: 0.8"/>
      </g>
     </g>
     <g id="text_5">
      <!-- 400 -->
      <g transform="translate(322.788742 303.028562)scale(0.1 -0.1)">
       <defs>
        <path id="DejaVuSans-34" d="M 2419 4116 
L 825 1625 
L 2419 1625 
L 2419 4116 
z
M 2253 4666 
L 3047 4666 
L 3047 1625 
L 3713 1625 
L 3713 1100 
L 3047 1100 
L 3047 0 
L 2419 0 
L 2419 1100 
L 313 1100 
L 313 1709 
L 2253 4666 
z
" transform="scale(0.015625)"/>
       </defs>
       <use xlink:href="#DejaVuSans-34"/>
       <use xlink:href="#DejaVuSans-30" x="63.623047"/>
       <use xlink:href="#DejaVuSans-30" x="127.246094"/>
      </g>
     </g>
    </g>
    <g id="xtick_6">
     <g id="line2d_11">
      <path d="M 397.393523 288.430125 
L 397.393523 22.318125 
" clip-path="url(#p4cfb379358)" style="fill: none; stroke: #b0b0b0; stroke-width: 0.8; stroke-linecap: square"/>
     </g>
     <g id="line2d_12">
      <g>
       <use xlink:href="#m0f2eeacee7" x="397.393523" y="288.430125" style="stroke: #000000; stroke-width: 0.8"/>
      </g>
     </g>
     <g id="text_6">
      <!-- 500 -->
      <g transform="translate(387.849773 303.028562)scale(0.1 -0.1)">
       <defs>
        <path id="DejaVuSans-35" d="M 691 4666 
L 3169 4666 
L 3169 4134 
L 1269 4134 
L 1269 2991 
Q 1406 3038 1543 3061 
Q 1681 3084 1819 3084 
Q 2600 3084 3056 2656 
Q 3513 2228 3513 1497 
Q 3513 744 3044 326 
Q 2575 -91 1722 -91 
Q 1428 -91 1123 -41 
Q 819 9 494 109 
L 494 744 
Q 775 591 1075 516 
Q 1375 441 1709 441 
Q 2250 441 2565 725 
Q 2881 1009 2881 1497 
Q 2881 1984 2565 2268 
Q 2250 2553 1709 2553 
Q 1456 2553 1204 2497 
Q 953 2441 691 2322 
L 691 4666 
z
" transform="scale(0.015625)"/>
       </defs>
       <use xlink:href="#DejaVuSans-35"/>
       <use xlink:href="#DejaVuSans-30" x="63.623047"/>
       <use xlink:href="#DejaVuSans-30" x="127.246094"/>
      </g>
     </g>
    </g>
    <g id="text_7">
     <!-- Generation Number -->
     <g transform="translate(185.498281 316.706687)scale(0.1 -0.1)">
      <defs>
       <path id="DejaVuSans-47" d="M 3809 666 
L 3809 1919 
L 2778 1919 
L 2778 2438 
L 4434 2438 
L 4434 434 
Q 4069 175 3628 42 
Q 3188 -91 2688 -91 
Q 1594 -91 976 548 
Q 359 1188 359 2328 
Q 359 3472 976 4111 
Q 1594 4750 2688 4750 
Q 3144 4750 3555 4637 
Q 3966 4525 4313 4306 
L 4313 3634 
Q 3963 3931 3569 4081 
Q 3175 4231 2741 4231 
Q 1884 4231 1454 3753 
Q 1025 3275 1025 2328 
Q 1025 1384 1454 906 
Q 1884 428 2741 428 
Q 3075 428 3337 486 
Q 3600 544 3809 666 
z
" transform="scale(0.015625)"/>
       <path id="DejaVuSans-65" d="M 3597 1894 
L 3597 1613 
L 953 1613 
Q 991 1019 1311 708 
Q 1631 397 2203 397 
Q 2534 397 2845 478 
Q 3156 559 3463 722 
L 3463 178 
Q 3153 47 2828 -22 
Q 2503 -91 2169 -91 
Q 1331 -91 842 396 
Q 353 884 353 1716 
Q 353 2575 817 3079 
Q 1281 3584 2069 3584 
Q 2775 3584 3186 3129 
Q 3597 2675 3597 1894 
z
M 3022 2063 
Q 3016 2534 2758 2815 
Q 2500 3097 2075 3097 
Q 1594 3097 1305 2825 
Q 1016 2553 972 2059 
L 3022 2063 
z
" transform="scale(0.015625)"/>
       <path id="DejaVuSans-6e" d="M 3513 2113 
L 3513 0 
L 2938 0 
L 2938 2094 
Q 2938 2591 2744 2837 
Q 2550 3084 2163 3084 
Q 1697 3084 1428 2787 
Q 1159 2491 1159 1978 
L 1159 0 
L 581 0 
L 581 3500 
L 1159 3500 
L 1159 2956 
Q 1366 3272 1645 3428 
Q 1925 3584 2291 3584 
Q 2894 3584 3203 3211 
Q 3513 2838 3513 2113 
z
" transform="scale(0.015625)"/>
       <path id="DejaVuSans-72" d="M 2631 2963 
Q 2534 3019 2420 3045 
Q 2306 3072 2169 3072 
Q 1681 3072 1420 2755 
Q 1159 2438 1159 1844 
L 1159 0 
L 581 0 
L 581 3500 
L 1159 3500 
L 1159 2956 
Q 1341 3275 1631 3429 
Q 1922 3584 2338 3584 
Q 2397 3584 2469 3576 
Q 2541 3569 2628 3553 
L 2631 2963 
z
" transform="scale(0.015625)"/>
       <path id="DejaVuSans-61" d="M 2194 1759 
Q 1497 1759 1228 1600 
Q 959 1441 959 1056 
Q 959 750 1161 570 
Q 1363 391 1709 391 
Q 2188 391 2477 730 
Q 2766 1069 2766 1631 
L 2766 1759 
L 2194 1759 
z
M 3341 1997 
L 3341 0 
L 2766 0 
L 2766 531 
Q 2569 213 2275 61 
Q 1981 -91 1556 -91 
Q 1019 -91 701 211 
Q 384 513 384 1019 
Q 384 1609 779 1909 
Q 1175 2209 1959 2209 
L 2766 2209 
L 2766 2266 
Q 2766 2663 2505 2880 
Q 2244 3097 1772 3097 
Q 1472 3097 1187 3025 
Q 903 2953 641 2809 
L 641 3341 
Q 956 3463 1253 3523 
Q 1550 3584 1831 3584 
Q 2591 3584 2966 3190 
Q 3341 2797 3341 1997 
z
" transform="scale(0.015625)"/>
       <path id="DejaVuSans-74" d="M 1172 4494 
L 1172 3500 
L 2356 3500 
L 2356 3053 
L 1172 3053 
L 1172 1153 
Q 1172 725 1289 603 
Q 1406 481 1766 481 
L 2356 481 
L 2356 0 
L 1766 0 
Q 1100 0 847 248 
Q 594 497 594 1153 
L 594 3053 
L 172 3053 
L 172 3500 
L 594 3500 
L 594 4494 
L 1172 4494 
z
" transform="scale(0.015625)"/>
       <path id="DejaVuSans-69" d="M 603 3500 
L 1178 3500 
L 1178 0 
L 603 0 
L 603 3500 
z
M 603 4863 
L 1178 4863 
L 1178 4134 
L 603 4134 
L 603 4863 
z
" transform="scale(0.015625)"/>
       <path id="DejaVuSans-6f" d="M 1959 3097 
Q 1497 3097 1228 2736 
Q 959 2375 959 1747 
Q 959 1119 1226 758 
Q 1494 397 1959 397 
Q 2419 397 2687 759 
Q 2956 1122 2956 1747 
Q 2956 2369 2687 2733 
Q 2419 3097 1959 3097 
z
M 1959 3584 
Q 2709 3584 3137 3096 
Q 3566 2609 3566 1747 
Q 3566 888 3137 398 
Q 2709 -91 1959 -91 
Q 1206 -91 779 398 
Q 353 888 353 1747 
Q 353 2609 779 3096 
Q 1206 3584 1959 3584 
z
" transform="scale(0.015625)"/>
       <path id="DejaVuSans-20" transform="scale(0.015625)"/>
       <path id="DejaVuSans-4e" d="M 628 4666 
L 1478 4666 
L 3547 763 
L 3547 4666 
L 4159 4666 
L 4159 0 
L 3309 0 
L 1241 3903 
L 1241 0 
L 628 0 
L 628 4666 
z
" transform="scale(0.015625)"/>
       <path id="DejaVuSans-75" d="M 544 1381 
L 544 3500 
L 1119 3500 
L 1119 1403 
Q 1119 906 1312 657 
Q 1506 409 1894 409 
Q 2359 409 2629 706 
Q 2900 1003 2900 1516 
L 2900 3500 
L 3475 3500 
L 3475 0 
L 2900 0 
L 2900 538 
Q 2691 219 2414 64 
Q 2138 -91 1772 -91 
Q 1169 -91 856 284 
Q 544 659 544 1381 
z
M 1991 3584 
L 1991 3584 
z
" transform="scale(0.015625)"/>
       <path id="DejaVuSans-6d" d="M 3328 2828 
Q 3544 3216 3844 3400 
Q 4144 3584 4550 3584 
Q 5097 3584 5394 3201 
Q 5691 2819 5691 2113 
L 5691 0 
L 5113 0 
L 5113 2094 
Q 5113 2597 4934 2840 
Q 4756 3084 4391 3084 
Q 3944 3084 3684 2787 
Q 3425 2491 3425 1978 
L 3425 0 
L 2847 0 
L 2847 2094 
Q 2847 2600 2669 2842 
Q 2491 3084 2119 3084 
Q 1678 3084 1418 2786 
Q 1159 2488 1159 1978 
L 1159 0 
L 581 0 
L 581 3500 
L 1159 3500 
L 1159 2956 
Q 1356 3278 1631 3431 
Q 1906 3584 2284 3584 
Q 2666 3584 2933 3390 
Q 3200 3197 3328 2828 
z
" transform="scale(0.015625)"/>
       <path id="DejaVuSans-62" d="M 3116 1747 
Q 3116 2381 2855 2742 
Q 2594 3103 2138 3103 
Q 1681 3103 1420 2742 
Q 1159 2381 1159 1747 
Q 1159 1113 1420 752 
Q 1681 391 2138 391 
Q 2594 391 2855 752 
Q 3116 1113 3116 1747 
z
M 1159 2969 
Q 1341 3281 1617 3432 
Q 1894 3584 2278 3584 
Q 2916 3584 3314 3078 
Q 3713 2572 3713 1747 
Q 3713 922 3314 415 
Q 2916 -91 2278 -91 
Q 1894 -91 1617 61 
Q 1341 213 1159 525 
L 1159 0 
L 581 0 
L 581 4863 
L 1159 4863 
L 1159 2969 
z
" transform="scale(0.015625)"/>
      </defs>
      <use xlink:href="#DejaVuSans-47"/>
      <use xlink:href="#DejaVuSans-65" x="77.490234"/>
      <use xlink:href="#DejaVuSans-6e" x="139.013672"/>
      <use xlink:href="#DejaVuSans-65" x="202.392578"/>
      <use xlink:href="#DejaVuSans-72" x="263.916016"/>
      <use xlink:href="#DejaVuSans-61" x="305.029297"/>
      <use xlink:href="#DejaVuSans-74" x="366.308594"/>
      <use xlink:href="#DejaVuSans-69" x="405.517578"/>
      <use xlink:href="#DejaVuSans-6f" x="433.300781"/>
      <use xlink:href="#DejaVuSans-6e" x="494.482422"/>
      <use xlink:href="#DejaVuSans-20" x="557.861328"/>
      <use xlink:href="#DejaVuSans-4e" x="589.648438"/>
      <use xlink:href="#DejaVuSans-75" x="664.453125"/>
      <use xlink:href="#DejaVuSans-6d" x="727.832031"/>
      <use xlink:href="#DejaVuSans-62" x="825.244141"/>
      <use xlink:href="#DejaVuSans-65" x="888.720703"/>
      <use xlink:href="#DejaVuSans-72" x="950.244141"/>
     </g>
    </g>
   </g>
   <g id="matplotlib.axis_2">
    <g id="ytick_1">
     <g id="line2d_13">
      <path d="M 56.50625 263.601507 
L 413.62625 263.601507 
" clip-path="url(#p4cfb379358)" style="fill: none; stroke: #b0b0b0; stroke-width: 0.8; stroke-linecap: square"/>
     </g>
     <g id="line2d_14">
      <defs>
       <path id="m1b7b923e51" d="M 0 0 
L -3.5 0 
" style="stroke: #000000; stroke-width: 0.8"/>
      </defs>
      <g>
       <use xlink:href="#m1b7b923e51" x="56.50625" y="263.601507" style="stroke: #000000; stroke-width: 0.8"/>
      </g>
     </g>
     <g id="text_8">
      <!-- 0.825 -->
      <g transform="translate(20.878125 267.400726)scale(0.1 -0.1)">
       <defs>
        <path id="DejaVuSans-2e" d="M 684 794 
L 1344 794 
L 1344 0 
L 684 0 
L 684 794 
z
" transform="scale(0.015625)"/>
        <path id="DejaVuSans-38" d="M 2034 2216 
Q 1584 2216 1326 1975 
Q 1069 1734 1069 1313 
Q 1069 891 1326 650 
Q 1584 409 2034 409 
Q 2484 409 2743 651 
Q 3003 894 3003 1313 
Q 3003 1734 2745 1975 
Q 2488 2216 2034 2216 
z
M 1403 2484 
Q 997 2584 770 2862 
Q 544 3141 544 3541 
Q 544 4100 942 4425 
Q 1341 4750 2034 4750 
Q 2731 4750 3128 4425 
Q 3525 4100 3525 3541 
Q 3525 3141 3298 2862 
Q 3072 2584 2669 2484 
Q 3125 2378 3379 2068 
Q 3634 1759 3634 1313 
Q 3634 634 3220 271 
Q 2806 -91 2034 -91 
Q 1263 -91 848 271 
Q 434 634 434 1313 
Q 434 1759 690 2068 
Q 947 2378 1403 2484 
z
M 1172 3481 
Q 1172 3119 1398 2916 
Q 1625 2713 2034 2713 
Q 2441 2713 2670 2916 
Q 2900 3119 2900 3481 
Q 2900 3844 2670 4047 
Q 2441 4250 2034 4250 
Q 1625 4250 1398 4047 
Q 1172 3844 1172 3481 
z
" transform="scale(0.015625)"/>
       </defs>
       <use xlink:href="#DejaVuSans-30"/>
       <use xlink:href="#DejaVuSans-2e" x="63.623047"/>
       <use xlink:href="#DejaVuSans-38" x="95.410156"/>
       <use xlink:href="#DejaVuSans-32" x="159.033203"/>
       <use xlink:href="#DejaVuSans-35" x="222.65625"/>
      </g>
     </g>
    </g>
    <g id="ytick_2">
     <g id="line2d_15">
      <path d="M 56.50625 230.000518 
L 413.62625 230.000518 
" clip-path="url(#p4cfb379358)" style="fill: none; stroke: #b0b0b0; stroke-width: 0.8; stroke-linecap: square"/>
     </g>
     <g id="line2d_16">
      <g>
       <use xlink:href="#m1b7b923e51" x="56.50625" y="230.000518" style="stroke: #000000; stroke-width: 0.8"/>
      </g>
     </g>
     <g id="text_9">
      <!-- 0.850 -->
      <g transform="translate(20.878125 233.799737)scale(0.1 -0.1)">
       <use xlink:href="#DejaVuSans-30"/>
       <use xlink:href="#DejaVuSans-2e" x="63.623047"/>
       <use xlink:href="#DejaVuSans-38" x="95.410156"/>
       <use xlink:href="#DejaVuSans-35" x="159.033203"/>
       <use xlink:href="#DejaVuSans-30" x="222.65625"/>
      </g>
     </g>
    </g>
    <g id="ytick_3">
     <g id="line2d_17">
      <path d="M 56.50625 196.399529 
L 413.62625 196.399529 
" clip-path="url(#p4cfb379358)" style="fill: none; stroke: #b0b0b0; stroke-width: 0.8; stroke-linecap: square"/>
     </g>
     <g id="line2d_18">
      <g>
       <use xlink:href="#m1b7b923e51" x="56.50625" y="196.399529" style="stroke: #000000; stroke-width: 0.8"/>
      </g>
     </g>
     <g id="text_10">
      <!-- 0.875 -->
      <g transform="translate(20.878125 200.198748)scale(0.1 -0.1)">
       <defs>
        <path id="DejaVuSans-37" d="M 525 4666 
L 3525 4666 
L 3525 4397 
L 1831 0 
L 1172 0 
L 2766 4134 
L 525 4134 
L 525 4666 
z
" transform="scale(0.015625)"/>
       </defs>
       <use xlink:href="#DejaVuSans-30"/>
       <use xlink:href="#DejaVuSans-2e" x="63.623047"/>
       <use xlink:href="#DejaVuSans-38" x="95.410156"/>
       <use xlink:href="#DejaVuSans-37" x="159.033203"/>
       <use xlink:href="#DejaVuSans-35" x="222.65625"/>
      </g>
     </g>
    </g>
    <g id="ytick_4">
     <g id="line2d_19">
      <path d="M 56.50625 162.79854 
L 413.62625 162.79854 
" clip-path="url(#p4cfb379358)" style="fill: none; stroke: #b0b0b0; stroke-width: 0.8; stroke-linecap: square"/>
     </g>
     <g id="line2d_20">
      <g>
       <use xlink:href="#m1b7b923e51" x="56.50625" y="162.79854" style="stroke: #000000; stroke-width: 0.8"/>
      </g>
     </g>
     <g id="text_11">
      <!-- 0.900 -->
      <g transform="translate(20.878125 166.597759)scale(0.1 -0.1)">
       <defs>
        <path id="DejaVuSans-39" d="M 703 97 
L 703 672 
Q 941 559 1184 500 
Q 1428 441 1663 441 
Q 2288 441 2617 861 
Q 2947 1281 2994 2138 
Q 2813 1869 2534 1725 
Q 2256 1581 1919 1581 
Q 1219 1581 811 2004 
Q 403 2428 403 3163 
Q 403 3881 828 4315 
Q 1253 4750 1959 4750 
Q 2769 4750 3195 4129 
Q 3622 3509 3622 2328 
Q 3622 1225 3098 567 
Q 2575 -91 1691 -91 
Q 1453 -91 1209 -44 
Q 966 3 703 97 
z
M 1959 2075 
Q 2384 2075 2632 2365 
Q 2881 2656 2881 3163 
Q 2881 3666 2632 3958 
Q 2384 4250 1959 4250 
Q 1534 4250 1286 3958 
Q 1038 3666 1038 3163 
Q 1038 2656 1286 2365 
Q 1534 2075 1959 2075 
z
" transform="scale(0.015625)"/>
       </defs>
       <use xlink:href="#DejaVuSans-30"/>
       <use xlink:href="#DejaVuSans-2e" x="63.623047"/>
       <use xlink:href="#DejaVuSans-39" x="95.410156"/>
       <use xlink:href="#DejaVuSans-30" x="159.033203"/>
       <use xlink:href="#DejaVuSans-30" x="222.65625"/>
      </g>
     </g>
    </g>
    <g id="ytick_5">
     <g id="line2d_21">
      <path d="M 56.50625 129.197551 
L 413.62625 129.197551 
" clip-path="url(#p4cfb379358)" style="fill: none; stroke: #b0b0b0; stroke-width: 0.8; stroke-linecap: square"/>
     </g>
     <g id="line2d_22">
      <g>
       <use xlink:href="#m1b7b923e51" x="56.50625" y="129.197551" style="stroke: #000000; stroke-width: 0.8"/>
      </g>
     </g>
     <g id="text_12">
      <!-- 0.925 -->
      <g transform="translate(20.878125 132.99677)scale(0.1 -0.1)">
       <use xlink:href="#DejaVuSans-30"/>
       <use xlink:href="#DejaVuSans-2e" x="63.623047"/>
       <use xlink:href="#DejaVuSans-39" x="95.410156"/>
       <use xlink:href="#DejaVuSans-32" x="159.033203"/>
       <use xlink:href="#DejaVuSans-35" x="222.65625"/>
      </g>
     </g>
    </g>
    <g id="ytick_6">
     <g id="line2d_23">
      <path d="M 56.50625 95.596562 
L 413.62625 95.596562 
" clip-path="url(#p4cfb379358)" style="fill: none; stroke: #b0b0b0; stroke-width: 0.8; stroke-linecap: square"/>
     </g>
     <g id="line2d_24">
      <g>
       <use xlink:href="#m1b7b923e51" x="56.50625" y="95.596562" style="stroke: #000000; stroke-width: 0.8"/>
      </g>
     </g>
     <g id="text_13">
      <!-- 0.950 -->
      <g transform="translate(20.878125 99.395781)scale(0.1 -0.1)">
       <use xlink:href="#DejaVuSans-30"/>
       <use xlink:href="#DejaVuSans-2e" x="63.623047"/>
       <use xlink:href="#DejaVuSans-39" x="95.410156"/>
       <use xlink:href="#DejaVuSans-35" x="159.033203"/>
       <use xlink:href="#DejaVuSans-30" x="222.65625"/>
      </g>
     </g>
    </g>
    <g id="ytick_7">
     <g id="line2d_25">
      <path d="M 56.50625 61.995573 
L 413.62625 61.995573 
" clip-path="url(#p4cfb379358)" style="fill: none; stroke: #b0b0b0; stroke-width: 0.8; stroke-linecap: square"/>
     </g>
     <g id="line2d_26">
      <g>
       <use xlink:href="#m1b7b923e51" x="56.50625" y="61.995573" style="stroke: #000000; stroke-width: 0.8"/>
      </g>
     </g>
     <g id="text_14">
      <!-- 0.975 -->
      <g transform="translate(20.878125 65.794792)scale(0.1 -0.1)">
       <use xlink:href="#DejaVuSans-30"/>
       <use xlink:href="#DejaVuSans-2e" x="63.623047"/>
       <use xlink:href="#DejaVuSans-39" x="95.410156"/>
       <use xlink:href="#DejaVuSans-37" x="159.033203"/>
       <use xlink:href="#DejaVuSans-35" x="222.65625"/>
      </g>
     </g>
    </g>
    <g id="ytick_8">
     <g id="line2d_27">
      <path d="M 56.50625 28.394584 
L 413.62625 28.394584 
" clip-path="url(#p4cfb379358)" style="fill: none; stroke: #b0b0b0; stroke-width: 0.8; stroke-linecap: square"/>
     </g>
     <g id="line2d_28">
      <g>
       <use xlink:href="#m1b7b923e51" x="56.50625" y="28.394584" style="stroke: #000000; stroke-width: 0.8"/>
      </g>
     </g>
     <g id="text_15">
      <!-- 1.000 -->
      <g transform="translate(20.878125 32.193803)scale(0.1 -0.1)">
       <use xlink:href="#DejaVuSans-31"/>
       <use xlink:href="#DejaVuSans-2e" x="63.623047"/>
       <use xlink:href="#DejaVuSans-30" x="95.410156"/>
       <use xlink:href="#DejaVuSans-30" x="159.033203"/>
       <use xlink:href="#DejaVuSans-30" x="222.65625"/>
      </g>
     </g>
    </g>
    <g id="text_16">
     <!-- Value -->
     <g transform="translate(14.798438 169.105375)rotate(-90)scale(0.1 -0.1)">
      <defs>
       <path id="DejaVuSans-56" d="M 1831 0 
L 50 4666 
L 709 4666 
L 2188 738 
L 3669 4666 
L 4325 4666 
L 2547 0 
L 1831 0 
z
" transform="scale(0.015625)"/>
       <path id="DejaVuSans-6c" d="M 603 4863 
L 1178 4863 
L 1178 0 
L 603 0 
L 603 4863 
z
" transform="scale(0.015625)"/>
      </defs>
      <use xlink:href="#DejaVuSans-56"/>
      <use xlink:href="#DejaVuSans-61" x="60.658203"/>
      <use xlink:href="#DejaVuSans-6c" x="121.9375"/>
      <use xlink:href="#DejaVuSans-75" x="149.720703"/>
      <use xlink:href="#DejaVuSans-65" x="213.099609"/>
     </g>
    </g>
   </g>
   <g id="line2d_29">
    <path d="M 72.738977 104.129521 
L 73.389588 101.62389 
L 74.040198 81.538299 
L 74.690808 50.814689 
L 75.341419 43.268313 
L 75.992029 39.235926 
L 76.642639 39.149246 
L 77.293249 39.306664 
L 77.94386 48.333011 
L 78.59447 39.59226 
L 79.24508 37.942133 
L 79.895691 34.414125 
L 80.546301 66.645104 
L 81.196911 73.444685 
L 82.498132 58.030287 
L 83.148742 61.853825 
L 83.799353 69.592788 
L 84.449963 65.230424 
L 85.100573 132.633095 
L 85.751184 101.92759 
L 86.401794 94.557779 
L 87.052404 92.387973 
L 87.703014 91.528141 
L 88.353625 92.098531 
L 89.004235 93.79328 
L 89.654845 110.427688 
L 90.305456 144.035935 
L 90.956066 116.44082 
L 91.606676 117.950191 
L 92.257287 121.227692 
L 92.907897 117.167186 
L 93.558507 107.845951 
L 94.209118 105.350413 
L 94.859728 119.816777 
L 95.510338 108.132748 
L 96.160948 111.393827 
L 96.811559 103.766058 
L 97.462169 90.378548 
L 98.112779 92.948029 
L 99.414 152.49838 
L 100.715221 123.012886 
L 101.365831 113.411342 
L 102.667052 168.438467 
L 103.317662 168.602133 
L 103.968272 149.746728 
L 104.618883 148.533927 
L 105.269493 136.827227 
L 105.920103 119.698133 
L 106.570713 154.408547 
L 107.221324 138.67747 
L 107.871934 145.207558 
L 108.522544 135.915323 
L 109.173155 106.028232 
L 111.124986 87.643078 
L 111.775596 101.016969 
L 113.076817 134.160251 
L 113.727427 111.893239 
L 114.378037 118.207427 
L 115.028648 108.645138 
L 116.980478 87.412999 
L 117.631089 92.47305 
L 118.281699 86.764741 
L 118.932309 102.161675 
L 119.58292 88.869978 
L 120.23353 128.617772 
L 120.88414 125.086078 
L 121.534751 113.570683 
L 122.185361 105.426518 
L 122.835971 199.68432 
L 123.486582 178.954958 
L 124.137192 198.800616 
L 125.438413 204.109732 
L 126.089023 276.334125 
L 126.739633 270.194178 
L 127.390243 258.71307 
L 128.040854 257.147701 
L 128.691464 237.895505 
L 129.342074 237.764924 
L 129.992685 234.951907 
L 130.643295 231.457064 
L 131.293905 227.213825 
L 131.944516 226.774096 
L 132.595126 233.13547 
L 133.245736 227.247311 
L 133.896347 224.179621 
L 134.546957 222.050511 
L 135.197567 220.303049 
L 135.848177 219.325455 
L 136.498788 219.911226 
L 137.149398 219.059246 
L 137.800008 217.043573 
L 138.450619 218.493342 
L 139.101229 216.683314 
L 139.751839 259.038561 
L 140.40245 258.414336 
L 141.05306 258.733738 
L 141.70367 257.950493 
L 142.354281 261.094289 
L 143.004891 259.836386 
L 143.655501 258.950278 
L 144.306112 257.839619 
L 144.956722 256.169946 
L 145.607332 255.084842 
L 146.257942 255.464569 
L 146.908553 254.165008 
L 147.559163 251.5614 
L 148.209773 250.35581 
L 148.860384 249.829881 
L 149.510994 248.39293 
L 150.161604 248.049815 
L 150.812215 249.721411 
L 151.462825 249.235938 
L 152.113435 248.475765 
L 153.414656 247.410289 
L 154.065266 248.964282 
L 154.715877 248.944494 
L 155.366487 248.642636 
L 156.017097 248.498757 
L 157.318318 247.864358 
L 158.619538 247.416057 
L 159.270149 247.264887 
L 160.571369 246.61046 
L 161.87259 246.188195 
L 162.5232 248.281496 
L 163.824421 247.173801 
L 164.475031 247.121248 
L 165.125642 246.573129 
L 165.776252 247.124613 
L 166.426862 246.750975 
L 167.077472 246.246917 
L 169.029303 245.660745 
L 169.679914 245.850047 
L 170.330524 245.85269 
L 170.981134 246.189397 
L 172.282355 245.956434 
L 173.583576 245.482097 
L 174.884796 244.743474 
L 175.535406 244.568832 
L 176.186017 244.531099 
L 177.487237 244.687316 
L 178.788458 244.534063 
L 179.439068 244.243581 
L 180.089679 244.216023 
L 180.740289 244.058765 
L 181.390899 244.224434 
L 182.69212 244.1706 
L 183.993341 243.93227 
L 185.294561 243.792476 
L 187.897002 243.371813 
L 193.101885 242.730925 
L 195.704326 242.649612 
L 203.51165 242.286629 
L 204.16226 242.286309 
L 204.812871 242.089156 
L 205.463481 242.254986 
L 208.716532 241.976199 
L 210.668363 241.835284 
L 211.969584 241.734184 
L 213.270805 241.646142 
L 214.572025 241.702059 
L 226.933621 241.535509 
L 228.885452 241.448268 
L 232.138504 241.425676 
L 329.73005 241.176051 
L 397.393523 241.157144 
L 397.393523 241.157144 
" clip-path="url(#p4cfb379358)" style="fill: none; stroke: #0000ff; stroke-width: 2; stroke-linecap: square"/>
   </g>
   <g id="line2d_30">
    <path d="M 72.738977 104.129521 
L 73.389588 101.62389 
L 74.040198 81.538299 
L 74.690808 50.814689 
L 75.341419 43.268313 
L 75.992029 39.235926 
L 76.642639 39.149246 
L 77.293249 39.306664 
L 77.94386 48.333011 
L 78.59447 39.59226 
L 79.24508 37.942133 
L 79.895691 34.414125 
L 80.546301 66.645104 
L 81.196911 73.444685 
L 82.498132 58.030287 
L 83.148742 61.853825 
L 83.799353 69.592788 
L 84.449963 65.230424 
L 85.100573 132.633095 
L 85.751184 101.92759 
L 86.401794 94.557779 
L 87.052404 92.387973 
L 87.703014 91.528141 
L 88.353625 92.098531 
L 89.004235 93.79328 
L 89.654845 110.427688 
L 90.305456 144.035935 
L 90.956066 116.44082 
L 91.606676 117.950191 
L 92.257287 121.227692 
L 92.907897 117.167186 
L 93.558507 107.845951 
L 94.209118 105.350413 
L 94.859728 119.816777 
L 95.510338 108.132748 
L 96.160948 111.393827 
L 96.811559 103.766058 
L 97.462169 90.378548 
L 98.112779 92.948029 
L 99.414 152.49838 
L 100.715221 123.012886 
L 101.365831 113.411342 
L 102.667052 168.438467 
L 103.317662 168.602133 
L 103.968272 149.746728 
L 104.618883 148.533927 
L 105.269493 136.827227 
L 105.920103 119.698133 
L 106.570713 154.408547 
L 107.221324 138.67747 
L 107.871934 145.207558 
L 108.522544 135.915323 
L 109.173155 106.028232 
L 111.124986 87.643078 
L 111.775596 101.016969 
L 113.076817 134.160251 
L 113.727427 111.893239 
L 114.378037 118.207427 
L 115.028648 108.645138 
L 116.980478 87.412999 
L 117.631089 92.47305 
L 118.281699 86.764741 
L 118.932309 102.161675 
L 119.58292 88.869978 
L 120.23353 128.617772 
L 120.88414 125.086078 
L 121.534751 113.570683 
L 122.185361 105.426518 
L 122.835971 199.68432 
L 123.486582 178.954958 
L 124.137192 198.800616 
L 125.438413 204.109732 
L 126.089023 276.334125 
L 126.739633 270.194178 
L 127.390243 258.71307 
L 128.040854 257.147701 
L 128.691464 237.895505 
L 129.342074 237.764924 
L 129.992685 234.951907 
L 130.643295 231.457064 
L 131.293905 227.213825 
L 131.944516 226.774096 
L 132.595126 233.13547 
L 133.245736 227.247311 
L 133.896347 224.179621 
L 134.546957 222.050511 
L 135.197567 220.303049 
L 135.848177 219.325455 
L 136.498788 219.911226 
L 137.149398 219.059246 
L 137.800008 217.043573 
L 138.450619 218.493342 
L 139.101229 216.683314 
L 139.751839 259.038561 
L 140.40245 258.414336 
L 141.05306 258.733738 
L 141.70367 257.950493 
L 142.354281 261.094289 
L 143.004891 259.836386 
L 143.655501 258.950278 
L 144.306112 257.839619 
L 144.956722 256.169946 
L 145.607332 255.084842 
L 146.257942 255.464569 
L 146.908553 254.165008 
L 147.559163 251.5614 
L 148.209773 250.35581 
L 148.860384 249.829881 
L 149.510994 248.39293 
L 150.161604 248.049815 
L 150.812215 249.721411 
L 151.462825 249.235938 
L 152.113435 248.475765 
L 153.414656 247.410289 
L 154.065266 248.964282 
L 154.715877 248.944494 
L 155.366487 248.642636 
L 156.017097 248.498757 
L 157.318318 247.864358 
L 158.619538 247.416057 
L 159.270149 247.264887 
L 160.571369 246.61046 
L 161.87259 246.188195 
L 162.5232 248.281496 
L 163.824421 247.173801 
L 164.475031 247.121248 
L 165.125642 246.573129 
L 165.776252 247.124613 
L 166.426862 246.750975 
L 167.077472 246.246917 
L 169.029303 245.660745 
L 169.679914 245.850047 
L 170.330524 245.85269 
L 170.981134 246.189397 
L 172.282355 245.956434 
L 173.583576 245.482097 
L 174.884796 244.743474 
L 175.535406 244.568832 
L 176.186017 244.531099 
L 177.487237 244.687316 
L 178.788458 244.534063 
L 179.439068 244.243581 
L 180.089679 244.216023 
L 180.740289 244.058765 
L 181.390899 244.224434 
L 182.69212 244.1706 
L 183.993341 243.93227 
L 185.294561 243.792476 
L 187.897002 243.371813 
L 193.101885 242.730925 
L 195.704326 242.649612 
L 203.51165 242.286629 
L 204.16226 242.286309 
L 204.812871 242.089156 
L 205.463481 242.254986 
L 208.716532 241.976199 
L 210.668363 241.835284 
L 211.969584 241.734184 
L 213.270805 241.646142 
L 214.572025 241.702059 
L 226.933621 241.535509 
L 228.885452 241.448268 
L 232.138504 241.425676 
L 329.73005 241.176051 
L 397.393523 241.157144 
L 397.393523 241.157144 
" clip-path="url(#p4cfb379358)" style="fill: none; stroke: #0000ff; stroke-width: 2; stroke-linecap: square"/>
   </g>
   <g id="patch_3">
    <path d="M 56.50625 288.430125 
L 56.50625 22.318125 
" style="fill: none; stroke: #000000; stroke-width: 0.8; stroke-linejoin: miter; stroke-linecap: square"/>
   </g>
   <g id="patch_4">
    <path d="M 413.62625 288.430125 
L 413.62625 22.318125 
" style="fill: none; stroke: #000000; stroke-width: 0.8; stroke-linejoin: miter; stroke-linecap: square"/>
   </g>
   <g id="patch_5">
    <path d="M 56.50625 288.430125 
L 413.62625 288.430125 
" style="fill: none; stroke: #000000; stroke-width: 0.8; stroke-linejoin: miter; stroke-linecap: square"/>
   </g>
   <g id="patch_6">
    <path d="M 56.50625 22.318125 
L 413.62625 22.318125 
" style="fill: none; stroke: #000000; stroke-width: 0.8; stroke-linejoin: miter; stroke-linecap: square"/>
   </g>
   <g id="text_17">
    <!-- HV Trace Plot -->
    <g transform="translate(195.41375 16.318125)scale(0.12 -0.12)">
     <defs>
      <path id="DejaVuSans-48" d="M 628 4666 
L 1259 4666 
L 1259 2753 
L 3553 2753 
L 3553 4666 
L 4184 4666 
L 4184 0 
L 3553 0 
L 3553 2222 
L 1259 2222 
L 1259 0 
L 628 0 
L 628 4666 
z
" transform="scale(0.015625)"/>
      <path id="DejaVuSans-54" d="M -19 4666 
L 3928 4666 
L 3928 4134 
L 2272 4134 
L 2272 0 
L 1638 0 
L 1638 4134 
L -19 4134 
L -19 4666 
z
" transform="scale(0.015625)"/>
      <path id="DejaVuSans-63" d="M 3122 3366 
L 3122 2828 
Q 2878 2963 2633 3030 
Q 2388 3097 2138 3097 
Q 1578 3097 1268 2742 
Q 959 2388 959 1747 
Q 959 1106 1268 751 
Q 1578 397 2138 397 
Q 2388 397 2633 464 
Q 2878 531 3122 666 
L 3122 134 
Q 2881 22 2623 -34 
Q 2366 -91 2075 -91 
Q 1284 -91 818 406 
Q 353 903 353 1747 
Q 353 2603 823 3093 
Q 1294 3584 2113 3584 
Q 2378 3584 2631 3529 
Q 2884 3475 3122 3366 
z
" transform="scale(0.015625)"/>
      <path id="DejaVuSans-50" d="M 1259 4147 
L 1259 2394 
L 2053 2394 
Q 2494 2394 2734 2622 
Q 2975 2850 2975 3272 
Q 2975 3691 2734 3919 
Q 2494 4147 2053 4147 
L 1259 4147 
z
M 628 4666 
L 2053 4666 
Q 2838 4666 3239 4311 
Q 3641 3956 3641 3272 
Q 3641 2581 3239 2228 
Q 2838 1875 2053 1875 
L 1259 1875 
L 1259 0 
L 628 0 
L 628 4666 
z
" transform="scale(0.015625)"/>
     </defs>
     <use xlink:href="#DejaVuSans-48"/>
     <use xlink:href="#DejaVuSans-56" x="75.195312"/>
     <use xlink:href="#DejaVuSans-20" x="143.603516"/>
     <use xlink:href="#DejaVuSans-54" x="175.390625"/>
     <use xlink:href="#DejaVuSans-72" x="221.724609"/>
     <use xlink:href="#DejaVuSans-61" x="262.837891"/>
     <use xlink:href="#DejaVuSans-63" x="324.117188"/>
     <use xlink:href="#DejaVuSans-65" x="379.097656"/>
     <use xlink:href="#DejaVuSans-20" x="440.621094"/>
     <use xlink:href="#DejaVuSans-50" x="472.408203"/>
     <use xlink:href="#DejaVuSans-6c" x="532.710938"/>
     <use xlink:href="#DejaVuSans-6f" x="560.494141"/>
     <use xlink:href="#DejaVuSans-74" x="621.675781"/>
    </g>
   </g>
   <g id="legend_1">
    <g id="patch_7">
     <path d="M 360.265313 44.99625 
L 406.62625 44.99625 
Q 408.62625 44.99625 408.62625 42.99625 
L 408.62625 29.318125 
Q 408.62625 27.318125 406.62625 27.318125 
L 360.265313 27.318125 
Q 358.265313 27.318125 358.265313 29.318125 
L 358.265313 42.99625 
Q 358.265313 44.99625 360.265313 44.99625 
z
" style="fill: #ffffff; opacity: 0.8; stroke: #cccccc; stroke-linejoin: miter"/>
    </g>
    <g id="line2d_31">
     <path d="M 362.265313 35.416562 
L 372.265313 35.416562 
L 382.265313 35.416562 
" style="fill: none; stroke: #0000ff; stroke-width: 2; stroke-linecap: square"/>
    </g>
    <g id="text_18">
     <!-- HV -->
     <g transform="translate(390.265313 38.916562)scale(0.1 -0.1)">
      <use xlink:href="#DejaVuSans-48"/>
      <use xlink:href="#DejaVuSans-56" x="75.195312"/>
     </g>
    </g>
   </g>
  </g>
 </g>
 <defs>
  <clipPath id="p4cfb379358">
   <rect x="56.50625" y="22.318125" width="357.12" height="266.112"/>
  </clipPath>
 </defs>
</svg>
